<?xml version="1.0" encoding="UTF-8" standalone="no"?>
<!-- Created with Inkscape (http://www.inkscape.org/) -->

<svg
   version="1.1"
   class="logo"
   id="svg18"
   width="1001.6632"
   height="1750.6099"
   viewBox="0 0 1001.6632 1750.6099"
   sodipodi:docname="375lincoln_transparent.png"
   xmlns:inkscape="http://www.inkscape.org/namespaces/inkscape"
   xmlns:sodipodi="http://sodipodi.sourceforge.net/DTD/sodipodi-0.dtd"
   xmlns="http://www.w3.org/2000/svg"
   xmlns:svg="http://www.w3.org/2000/svg">
  <defs
     id="defs22" />
  <g
     inkscape:groupmode="layer"
     inkscape:label="Image"
     id="g24"
     transform="translate(80.778457,56.729163)">
    <path
       style="stroke-width:1.33333 "
       fill="currentColor"
       stroke="currentColor"
       d="m -43.70657,1692.4301 c -7.18438,-1.6824 -14.27565,-9.4963 -17.27671,-19.0375 -1.89229,-6.0161 -2.34448,-12.261 -2.33002,-32.1789 0.0208,-28.6775 1.53103,-35.8075 9.37793,-44.2748 6.47235,-6.984 10.26157,-8.3348 23.37989,-8.3348 18.34504,0 26.14135,5.9877 30.69945,23.5781 2.91931,11.266 2.89508,45.1075 -0.0415,58.0188 -2.7152,11.9379 -9.37611,19.9626 -18.47069,22.2527 -6.9039,1.7384 -17.85722,1.7281 -25.3383,-0.024 z m 20.13966,-16.1593 c 5.19041,-5.8879 5.82021,-9.6836 5.82021,-35.0774 0,-22.2196 -0.27249,-25.1981 -2.79656,-30.5678 -2.23424,-4.7531 -3.64455,-6.1084 -7.01387,-6.7406 -6.3695,-1.1949 -11.12692,1.2383 -13.6968,7.0051 -1.85402,4.1605 -2.25795,9.6157 -2.29885,31.0473 -0.0506,26.495 0.35768,29.0848 5.51739,35 3.01497,3.4564 11.16484,3.081 14.46848,-0.6666 z m 411.57068,16.1286 c -3.7152,-0.8334 -6.9299,-2.7866 -9.6094,-5.8384 -4.1552,-4.7325 -8.1411,-15.601 -8.1411,-22.1989 v -3.758 h 10.6667 10.6667 v 6.0636 c 0,10.6808 9.418,15.8543 18.787,10.3199 6.0765,-3.5895 6.9515,-15.9396 1.4707,-20.759 -2.377,-2.0901 -14.5972,-7.8832 -20.2577,-9.6034 -4.9328,-1.4991 -14.1858,-9.4486 -16.5768,-14.2416 -2.6842,-5.3806 -2.7788,-21.8484 -0.1605,-27.95 4.9492,-11.5338 12.637,-15.8295 28.3286,-15.8295 11.8362,0 18.4975,2.1991 23.5355,7.7699 3.151,3.4842 6.0729,11.6732 6.148,17.2301 l 0.058,4.3333 h -9.3333 c -8.5199,0 -9.3334,-0.2382 -9.3334,-2.7329 0,-4.5691 -3.7096,-10.2384 -7.2867,-11.1363 -4.0817,-1.0244 -10.0128,0.3116 -12.5217,2.8206 -2.6748,2.6746 -2.5539,14.2101 0.1775,16.9414 2.151,2.1511 15.4786,9.1283 25.0766,13.1283 9.7197,4.0505 17.136,15.236 17.1917,25.9289 0.044,8.5291 -4.6712,19.6676 -10.2861,24.2959 -7.5462,6.2201 -24.1336,8.4616 -38.6008,5.2161 z m 168.4971,0.1588 c -7.2648,-1.8305 -13.7151,-8.5552 -17.2216,-17.9541 -2.7051,-7.2509 -2.9846,-10.372 -2.9846,-33.3333 0,-22.9204 0.2824,-26.087 2.9645,-33.245 5.4772,-14.6174 12.8709,-19.4217 29.8899,-19.4217 10.578,0 16.0389,1.6316 21.4998,6.4237 4.3314,3.801 8.9158,16.7594 8.9303,25.243 l 0.01,4.3333 h -10 -10 v -4.7095 c 0,-13.3772 -9.7528,-20.7226 -18.0445,-13.5904 -3.2732,2.8155 -3.6261,4.1998 -4.9124,19.2668 -0.9207,10.7838 -0.9553,21.4068 -0.1032,31.6443 1.1085,13.318 1.7065,15.862 4.4038,18.7332 5.381,5.7277 14.0463,3.5463 17.0456,-4.2913 0.7829,-2.0459 1.8088,-7.1698 2.2797,-11.3864 l 0.8562,-7.6667 h 9.2374 9.2374 v 7.8011 c 0,8.2376 -1.4526,14.2768 -5.0187,20.8656 -2.5729,4.7537 -3.8094,6.0778 -8.6015,9.2117 -4.3005,2.8123 -21.6827,4.0368 -29.4656,2.0757 z m 80.4191,-0.1793 c -8.6125,-2.4325 -15.3915,-11.7008 -18.5525,-25.3652 -2.0618,-8.9124 -1.7503,-44.0788 0.4728,-53.3797 4.3836,-18.3407 12.7788,-25.0299 31.4131,-25.0299 25.369,0 33.3333,12.5835 33.3333,52.6667 0,40.1694 -8.3566,52.8282 -34.6667,52.5138 -4.0333,-0.048 -9.4333,-0.6808 -12,-1.4057 z m 21.3564,-16.466 c 2.7581,-2.9359 3.3194,-5.3757 4.4666,-19.4173 0.9004,-11.0214 0.8588,-20.9367 -0.1327,-31.6055 -1.3272,-14.2811 -1.732,-15.7928 -4.9752,-18.5825 -4.4888,-3.8611 -10.263,-3.8756 -14.7027,-0.037 -4.2779,3.6988 -5.9588,13.5718 -5.9588,35 0,29.0515 3.1272,38 13.2798,38 3.4785,0 5.769,-0.9586 8.023,-3.3578 z m -627.1059,11.0245 c -1.27818,-9.4932 -4.64763,-30.0076 -6.81268,-41.478 -1.78417,-9.4526 -5.70896,-31.8661 -8.73007,-49.8553 l -0.95166,-5.6667 h 9.78862 c 8.4113,0 9.79686,0.3283 9.84717,2.3334 0.0589,2.3481 1.78056,15.5014 3.97033,30.3333 0.64962,4.4 2.07369,15.1148 3.1646,23.8107 1.09092,8.6958 2.23353,16.0608 2.53914,16.3664 0.52489,0.5249 2.63991,-9.2298 4.23028,-19.5104 1.16965,-7.561 4.51054,-30.5598 5.96823,-41.0856 0.74282,-5.3636 1.69759,-10.3136 2.12174,-11 0.42414,-0.6863 4.899,-1.2478 9.94412,-1.2478 h 9.17295 l 0.76954,6.3334 c 0.42326,3.4833 1.32332,9.0333 2.00015,12.3333 0.67684,3.3 1.59305,9.6 2.03604,14 0.44299,4.4 1.33165,11 1.97481,14.6667 0.64316,3.6666 1.96587,11.4666 2.93936,17.3333 l 1.76999,10.6667 0.88923,-6.6667 c 0.48908,-3.6667 1.5581,-10.8667 2.37564,-16 1.35164,-8.4871 4.62421,-32.7844 6.33037,-47 l 0.68012,-5.6667 h 9.89115 c 9.56101,0 9.86946,0.1 9.24169,3 -2.20977,10.2078 -11.94569,66.733 -16.30544,94.6667 l -0.78037,5 h -10.9456 -10.9456 l -1.52926,-7 c -0.84108,-3.85 -2.19908,-12.4 -3.01777,-19 -0.81868,-6.6 -1.95628,-15 -2.52799,-18.6667 -0.57171,-3.6666 -1.70684,-11.4142 -2.52252,-17.217 -1.36339,-9.699 -2.76471,-14.5835 -2.87044,-10.0052 -0.024,1.0389 -0.65087,6.0889 -1.39305,11.2222 -2.40587,16.6403 -3.58147,25.0562 -5.6859,40.7039 -1.13693,8.4537 -2.46365,16.4037 -2.94828,17.6667 -0.73536,1.9162 -2.70366,2.2961 -11.89839,2.2961 H 31.93344 Z m 101.7495,-45.6666 v -51.3334 h 11.17157 c 13.04567,0 10.42176,-3.5284 20.8223,28 3.74961,11.3667 7.36299,21.8667 8.02972,23.3334 0.66672,1.4666 2.39139,6.2666 3.83256,10.6666 l 2.62035,8 0.0951,-35 0.0951,-35 h 9.33333 9.33334 v 51.3334 51.3333 l -11.66667,-0.02 -11.66667,-0.02 -7.25213,-22.3136 c -3.98868,-12.2725 -7.73868,-22.8836 -8.33334,-23.5803 -0.59466,-0.6966 -1.0812,-2.3548 -1.0812,-3.6848 0,-1.3298 -0.54382,-3.4598 -1.20852,-4.7333 -0.66468,-1.2733 -2.01468,-5.0152 -3,-8.3152 -1.62597,-5.4457 -1.82436,-2.8281 -2.14732,28.3333 l -0.35584,34.3334 H 142.23083 132.92 v -51.3334 z m 85.33334,0 v -51.3334 h 28 28 v 8.6667 8.6667 h -18 -18 v 12 12 h 16.66666 16.66667 v 8 8 h -16.66667 -16.66666 v 14 14 h 18 18 v 8.6666 8.6667 h -28 -28 z m 73.33333,-0.1294 v -51.4629 l 23.76644,0.4629 c 23.21588,0.4522 23.89219,0.546 29.19539,4.0571 7.3929,4.8945 10.2986,12.5399 9.401,24.7347 -0.7846,10.6593 -3.9975,17.1102 -10.1708,20.4209 l -4.3999,2.3597 4.7829,2.2696 c 6.7504,3.2034 8.4849,8.0472 9.8945,27.6331 0.7037,9.7773 1.926,17.8577 2.874,19 1.4384,1.7332 0.2839,1.9877 -9.017,1.9877 -6.9178,0 -11.14555,-0.5857 -12.02923,-1.6666 -0.7494,-0.9167 -1.57287,-9.2542 -1.82992,-18.5276 -0.586,-21.1406 -1.41627,-22.4726 -14.00736,-22.4726 h -8.46002 v 21.3334 21.3333 h -10 -10 v -51.4628 z m 33.62736,-7.263 c 2.72838,-0.7578 5.87838,-2.688 7,-4.2894 2.33207,-3.3294 2.73243,-14.5317 0.65788,-18.408 -1.81229,-3.3862 -9.62976,-6.5768 -16.11473,-6.5768 h -5.17051 v 15.3334 15.3333 l 4.33334,-0.013 c 2.38333,0 6.56564,-0.6274 9.29402,-1.3851 z m 377.03937,7.2629 v -51.4629 l 23.7277,0.4629 c 20.6776,0.4033 24.2342,0.7927 27.6667,3.0293 7.8621,5.1227 11.2722,12.3995 11.2722,24.0532 0,10.2068 -3.9984,18.657 -10.4705,22.128 l -4.404,2.3619 4.5776,2.1721 c 4.2885,2.0351 6.002,4.2328 8.3566,10.7183 0.5325,1.4667 1.3547,10.0496 1.8271,19.0731 0.6428,12.2782 1.3522,16.7184 2.8194,17.6462 1.2973,0.8204 -1.9504,1.2468 -9.6002,1.2603 -13.5919,0.024 -12.4574,1.8457 -13.8913,-22.3063 -1.1217,-18.8928 -2.0968,-20.34 -13.7044,-20.34 h -8.1769 v 21.3334 21.3333 h -10 -10 z m 31.543,-6.6459 c 6.8782,-1.3756 9.7674,-4.637 10.6408,-12.012 1.4088,-11.8944 -4.6183,-17.8793 -18.0052,-17.8793 h -4.1786 v 15.3333 15.3334 h 3.8333 c 2.1083,0 5.5777,-0.349 7.7097,-0.7754 z m 51.1236,6.6434 v -51.4652 l 23,0.4652 c 22.713,0.4594 23.0598,0.511 27.789,4.1293 7.8308,5.9912 10.9389,13.6375 10.8785,26.7625 -0.054,11.7934 -1.4576,16.0976 -7.2999,22.3904 -4.5742,4.9268 -16.8183,9.1831 -26.4176,9.1831 h -7.95 v 20 20 h -10 -10 z m 35.2064,-6.0528 c 6.6837,-3.0452 9.3999,-14.6583 5.3999,-23.0874 -2.2004,-4.637 -8.3263,-7.3945 -16.4276,-7.3945 h -4.1787 v 16 16 h 5.9373 c 3.2655,0 7.4366,-0.6832 9.2691,-1.5181 z m 27.4603,46.1848 v -11.3334 h 9.3333 9.3334 v 11.3334 11.3333 h -9.3334 -9.3333 z m -394.6667,-49.4742 c 0,-3.1828 1.1266,-6.1464 3.3333,-8.769 1.8334,-2.1788 3.3334,-5.4154 3.3334,-7.1924 0,-2.5576 -0.6948,-3.2311 -3.3334,-3.2311 -3.2941,0 -3.3333,-0.1333 -3.3333,-11.3333 v -11.3334 h 8.6667 8.6666 v 14.5039 c 0,18.7572 -1.9573,24.0909 -10.953,29.8468 -5.2363,3.3503 -6.3803,2.9036 -6.3803,-2.4915 z M -69.7467,1541.2708 v -6 h 466.66667 466.6667 v 6 6 H 396.91997 -69.7467 Z m 650.66667,-35.2663 c -1.8333,-0.5808 -6.6333,-1.8044 -10.6667,-2.7192 -29.1131,-6.6036 -55.1625,-30.612 -65.8398,-60.6812 -1.302,-3.6667 -2.865,-7.8667 -3.4734,-9.3333 -3.822,-9.214 -4.6868,-17.3326 -4.6868,-44 0,-28.7271 0.043,-29.0499 6.3556,-48 2.9116,-8.7402 9.8654,-22.9666 12.5923,-25.7619 0.9454,-0.9691 1.7188,-2.3237 1.7188,-3.0104 0,-2.3887 19.3813,-20.8483 26.6667,-25.3985 25.7058,-16.0551 55.6787,-18.5459 98.9889,-8.2262 l 15.6556,3.7303 0.011,33 0.011,33 h -5.0855 -5.0855 l -8.5045,-22.3333 c -4.6775,-12.2834 -9.9672,-25.0334 -11.7549,-28.3334 -8.0784,-14.9122 -19.7683,-20.3358 -37.4157,-17.3593 -19.0761,3.2176 -25.3274,15.1508 -30.7468,58.6927 -0.7758,6.2333 -1.3972,28.7333 -1.3809,50 0.05,65.8169 5.1696,93.0324 19.5835,104.1113 13.9054,10.6883 37.9626,8.1245 50.0898,-5.3379 2.0347,-2.2586 4.0497,-5.4568 4.4778,-7.1068 0.4281,-1.65 1.3134,-3 1.9672,-3 0.6538,0 1.1888,-0.9081 1.1888,-2.0181 0,-1.1099 0.5703,-3.0599 1.2674,-4.3333 1.2041,-2.1996 4.9782,-14.0703 10.0622,-31.6486 5.2449,-18.1345 5.9191,-19.3333 10.873,-19.3333 h 4.5069 l -0.3547,36.0603 -0.3548,36.0602 -9.3333,3.3766 c -12.6857,4.5892 -21.0331,6.8229 -34.197,9.1509 -11.8656,2.0985 -31.6228,2.4987 -37.1364,0.7524 z m -657.33334,-8.0671 v -4 h 8 8 v -104.6666 -104.6667 h -8 c -7.64444,0 -8,-0.1481 -8,-3.3333 v -3.3334 h 59.24617 c 67.73478,0 72.07919,0.451 92.67926,9.6196 7.4659,3.323 19.71931,15.6831 24.07792,24.2876 3.04591,6.0131 3.32999,8.0606 3.32999,24 0,15.8454 -0.29852,18.0284 -3.29067,24.0655 -2.87641,5.8035 -11.81317,16.0344 -17.49414,20.0273 -5.54502,3.8975 -13.68655,7.444 -23.21519,10.1128 -8.92464,2.4998 -14.9673,3.0808 -37,3.558 l -26.33334,0.5704 v 49.8794 49.8794 H 6.91997 18.2533 v 4 4 H -29.08003 -76.41337 Z M 24.5239,1385.6041 c 10.14902,-4.5356 15.35467,-13.3289 18.35208,-31 2.57874,-15.2028 2.56251,-21.8877 -0.0918,-37.8348 -1.98233,-11.9097 -5.90665,-21.6993 -10.58267,-26.3995 -3.8226,-3.8422 -11.86594,-5.7657 -24.11102,-5.7657 H -4.41335 v 51.3333 51.3334 H 8.19058 c 7.20524,0 14.20136,-0.7139 16.33334,-1.6667 z m 91.06274,113 c 0,-3.2137 0.3111,-3.3333 8.66666,-3.3333 h 8.66667 v -105.3334 -105.3333 h -8.66667 c -8.35556,0 -8.66666,-0.12 -8.66666,-3.3333 v -3.3334 h 48.66666 48.66667 v 3.3334 c 0,3.3086 -0.0889,3.3333 -12,3.3333 h -12 v 104.6667 104.6666 h 23.85899 23.859 l 4.16452,-3.8902 c 7.73484,-7.2255 13.29825,-23.4404 21.53883,-62.7764 0.69132,-3.3 1.63333,-8.25 2.09336,-11 0.79826,-4.7719 1.07169,-5 5.9942,-5 h 5.15777 v 45.3333 45.3333 h -80 -80 z m 176,-0.6667 c 0,-3.9908 0.018,-4 7.83824,-4 9.00167,0 7.70252,1.8062 14.86516,-20.6666 2.33732,-7.3334 5.35196,-16.3334 6.6992,-20 1.34724,-3.6667 4.94015,-14.4667 7.98424,-24 3.04408,-9.5334 6.63638,-20.3334 7.98286,-24 1.34648,-3.6667 2.82683,-8.1667 3.28973,-10 0.4628,-1.8334 1.3502,-4.5334 1.9719,-6 0.6216,-1.4667 2.7679,-7.7667 4.7694,-14 2.0014,-6.2334 4.0333,-12.2334 4.5152,-13.3334 0.4818,-1.1 1.9726,-5.6 3.3127,-10 1.3401,-4.4 2.9619,-9.0418 3.604,-10.3152 0.642,-1.2734 1.1674,-3.4034 1.1674,-4.7333 0,-1.33 0.4826,-2.9881 1.0724,-3.6848 0.5899,-0.6967 5.2399,-14.0025 10.3334,-29.5687 l 9.2608,-28.302 17.5633,-0.032 17.5633,-0.032 1.5296,5 c 0.8413,2.75 2.027,6.2 2.6349,7.6667 0.6079,1.4667 2.4399,7.1667 4.0711,12.6667 1.6312,5.5 3.7225,12.4 4.6474,15.3333 1.8703,5.9321 8.3791,27.3133 13.5974,44.6667 1.8744,6.2333 5.0826,16.4333 7.1294,22.6666 5.8682,17.871 11.9303,38.0983 11.9303,39.8074 0,0.8592 0.5402,2.604 1.2005,3.8774 0.6602,1.2734 2.1662,5.6152 3.3467,9.6486 1.1804,4.0333 4.2402,13.7922 6.7995,21.6865 2.5593,7.8944 4.6533,15.5089 4.6533,16.9213 0,1.4124 0.6,2.939 1.3333,3.3922 0.7334,0.4532 1.3334,2.2532 1.3334,4 0,1.7468 0.6,3.5468 1.3333,4 0.7333,0.4532 1.3333,2.2886 1.3333,4.0786 0,3.0562 0.4473,3.2547 7.3334,3.2547 7.2592,0 7.3333,0.04 7.3333,4 v 4 h -48 -48 v -4 -4 h 12.5464 12.5464 l -1.939,-7.6667 c -2.3371,-9.2408 -3.3541,-12.8512 -7.042,-25 -1.5582,-5.1333 -3.4905,-11.7333 -4.2938,-14.6666 -0.8033,-2.9334 -1.943,-6.8334 -2.5326,-8.6667 -0.5896,-1.8333 -2.0816,-6.9333 -3.3155,-11.3333 -1.234,-4.4 -2.8547,-9.65 -3.6018,-11.6667 l -1.3583,-3.6653 h -29.0098 -29.0098 l -1.3987,3.6666 c -0.7692,2.0167 -4.81539,14.1667 -8.99145,27 -4.17607,12.8334 -9.28638,28.1334 -11.35624,34 -2.06986,5.8667 -4.16152,12.3167 -4.64814,14.3334 l -0.88476,3.6666 h 12.81122 12.81117 v 4 4 h -25.33329 -25.33334 z m 108.11023,-96.3333 c -0.6412,-1.65 -1.8979,-5.7 -2.7927,-9 -0.8947,-3.3 -2.1092,-7.5 -2.6988,-9.3333 -0.5896,-1.8334 -2.0898,-6.9334 -3.3337,-11.3334 -1.244,-4.4 -3.0299,-10.4 -3.9688,-13.3333 -0.9389,-2.9333 -2.4503,-8.0333 -3.3586,-11.3333 -3.1909,-11.5932 -4.3114,-15.3814 -6.1264,-20.7112 -1.0072,-2.9579 -1.8312,-6.5279 -1.8312,-7.9334 0,-4.2301 -2.0847,-0.5876 -4.5659,7.9779 -1.2746,4.4 -3.391,11 -4.7032,14.6667 -1.3121,3.6666 -4.2529,12.6666 -6.5351,20 -2.2821,7.3333 -6.2598,19.901 -8.8393,27.9284 -2.5794,8.0272 -4.6899,14.7772 -4.6899,15 0,0.2226 12.2872,0.4049 27.3048,0.4049 h 27.3047 z m 289.2231,96.3333 v -4 h 8 8 v -104.6666 -104.6667 h -7.3333 c -6.9333,0 -7.3333,-0.1819 -7.3333,-3.3333 v -3.3334 h 83.3333 83.3333 v 35.41 35.41 l -5.5796,-0.41 -5.5797,-0.41 -3.1406,-10.6666 c -6.9632,-23.6502 -9.0014,-29.6612 -12.5641,-37.0543 -3.9893,-8.2784 -5.144,-9.7057 -10.7557,-13.2964 -3.1359,-2.0064 -7.2796,-2.316 -31,-2.316 h -27.3803 v 48.8257 48.8258 l 12.3334,-0.5636 c 13.4032,-0.6124 19.5862,-2.7336 21.6495,-7.4271 0.7239,-1.6468 1.7739,-2.9941 2.3333,-2.9941 0.5594,0 1.0172,-1.1646 1.0172,-2.588 0,-1.4234 0.4917,-2.8919 1.0927,-3.2634 0.601,-0.3713 2.1785,-5.3568 3.5056,-11.0786 3.6492,-15.7334 4.5788,-17.7367 8.2301,-17.7367 h 3.1716 v 48 48 h -3.1194 c -3.2816,0 -6.214,-4.456 -6.214,-9.4427 0,-6.5306 -7.2316,-24.2729 -11.9606,-29.3442 l -4.8611,-5.2131 h -13.5891 -13.5892 v 52.6667 52.6666 h 27.8023 27.8022 l 4.133,-3.9497 c 7.0963,-6.7815 14.2079,-24.5604 19.7536,-49.3836 5.2036,-23.2915 4.8916,-22.6667 11.3182,-22.6667 h 5.1907 v 42 42 h -84 -84 z m -758.66667,-248 v -6.6666 h 466.66667 466.6667 v 6.6666 6.6667 H 396.91997 -69.7467 Z m 455.99997,-32.5695 c -3.3,-0.8724 -7.689,-2.3011 -9.7534,-3.175 -2.0644,-0.8738 -4.1644,-1.5997 -4.6667,-1.6131 -0.5022,-0.013 -3.0126,-1.6633 -5.5784,-3.6666 -14.2529,-11.128 -23.5763,-26.0827 -27.20733,-43.6403 -7.53468,-36.4339 7.42323,-70.8496 37.14173,-85.4573 l 10.6026,-5.2115 h 20.1984 c 12.4556,0 21.4248,0.5868 23.3975,1.5307 1.7594,0.8419 5.449,2.5201 8.199,3.7293 l 5,2.1985 v 24.0219 24.0219 l -4.1115,-0.4178 c -3.6682,-0.3728 -4.3882,-1.2083 -6.6792,-7.7512 -2.5495,-7.2809 -7.4445,-18.329 -11.5198,-26 -6.9158,-13.0179 -14.953,-18.2166 -23.6998,-15.3299 -8.7175,2.8771 -11.1532,10.7842 -12.6909,41.1992 -1.6529,32.6969 0.1096,64.9742 4.0499,74.1667 4.6034,10.7392 9.384,13.964 20.7004,13.964 5.7734,0 9.0993,-0.8657 14.0863,-3.6666 3.5907,-2.0167 6.5291,-4.0706 6.5299,-4.5644 7e-4,-0.4937 1.4624,-2.634 3.2481,-4.7562 1.7857,-2.1222 3.6684,-5.6183 4.1838,-7.769 0.5154,-2.1507 1.4288,-4.541 2.0296,-5.3117 0.6009,-0.7707 1.855,-5.4207 2.7869,-10.3333 1.5161,-7.9922 2.0226,-8.9321 4.8135,-8.9321 2.3256,0 2.9563,0.5937 2.4791,2.3333 -0.3521,1.2834 -1.038,4.7334 -1.5242,7.6667 -1.4201,8.5665 -5.5716,20.1584 -8.9173,24.899 -11.6746,16.5423 -32.1023,23.4151 -53.0982,17.8648 z m 139.3334,-0.033 c -6.9391,-2.0655 -9.7846,-3.1376 -14.7477,-5.5567 -8.2916,-4.0413 -19.2835,-14.6751 -22.8324,-22.0887 -1.331,-2.7802 -2.8223,-5.0618 -3.314,-5.0702 -0.4917,-0.01 -1.3123,-1.9653 -1.8234,-4.3487 -0.5112,-2.3833 -1.3049,-4.9333 -1.7638,-5.6666 -3.686,-5.8908 -5.859,-40.1425 -3.0201,-47.604 0.641,-1.6845 2.2466,-6.3627 3.568,-10.396 3.5044,-10.6958 8.1899,-18.5387 15.1344,-25.3334 6.7541,-6.6084 16.4231,-13.3333 19.1704,-13.3333 0.969,0 2.5115,-0.75 3.4277,-1.6667 1.1762,-1.1769 7.2299,-1.6666 20.6,-1.6666 h 18.9342 l 9.5879,4.959 c 25.2401,13.0547 38.3654,40.2942 35.8371,74.3743 -1.0113,13.6318 -3.8,23.3217 -9.7526,33.8874 -4.5252,8.032 -18.0543,22.1126 -21.2464,22.1126 -0.9676,0 -1.7593,0.6 -1.7593,1.3334 0,0.7333 -0.6593,1.3333 -1.4652,1.3333 -0.8058,0 -3.3558,0.8403 -5.6666,1.8674 -10.8167,4.8076 -28.0671,6.0785 -38.8682,2.8635 z m 25.0524,-9.0642 c 6.8393,-9.2962 6.9476,-10.2677 6.9476,-62.3334 0,-51.1515 -0.1576,-52.7056 -6.2412,-61.5508 -1.659,-2.4122 -4.1279,-3.8357 -7.6986,-4.439 -7.5545,-1.2763 -12.0716,1.346 -16.0602,9.3232 l -3.3334,6.6666 0.038,50 c 0.037,49.0325 0.096,50.1269 3.0474,56.5543 3.8361,8.3551 6.1223,10.0177 13.8468,10.07 5.5485,0.038 6.6302,-0.4534 9.4536,-4.2909 z m -619.05244,3.6666 c 0,-1.5111 1.62963,-2 6.66667,-2 h 6.66666 v -88 -88 h -6.66666 c -5.77778,0 -6.66667,-0.3555 -6.66667,-2.6666 0,-2.6074 0.88889,-2.6667 40,-2.6667 39.11111,0 40,0.059 40,2.6667 0,2.4296 -0.88889,2.6666 -10,2.6666 h -10 v 87.4272 87.4272 l 20.53083,-0.4272 c 24.70348,-0.514 23.86603,-0.057 31.3119,-17.0938 1.8966,-4.3397 5.35531,-17.0856 7.59804,-28 5.22847,-25.4448 4.62819,-24 9.97126,-24 h 3.92131 v 37.3333 37.3333 H -1.7467 c -58.37037,0 -66.66667,-0.2488 -66.66667,-2 z m 157.33334,-0.6666 c 0,-2.3111 0.88889,-2.6667 6.66667,-2.6667 h 6.66666 v -62.6667 -62.6666 h -6.66666 c -5.77778,0 -6.66667,-0.3556 -6.66667,-2.6667 0,-2.5778 0.88889,-2.6667 26.66667,-2.6667 h 26.66666 v 65.3334 65.3333 h 6.66667 c 5.77777,0 6.66667,0.3556 6.66667,2.6667 0,2.5955 -0.8889,2.6666 -33.33334,2.6666 -32.44444,0 -33.33333,-0.071 -33.33333,-2.6666 z m 89.33334,0 c 0,-2.3111 0.88889,-2.6667 6.66666,-2.6667 h 6.66667 v -62.6667 -62.6666 h -6.66667 c -5.77777,0 -6.66666,-0.3556 -6.66666,-2.6667 0,-2.5755 0.88889,-2.6667 26,-2.6667 h 26 v 9.5944 9.5944 l 3.9105,-6.1662 c 2.15079,-3.3915 5.104,-6.805 6.56271,-7.5857 1.45869,-0.7807 3.44897,-2.1961 4.42281,-3.1454 4.24512,-4.138 11.66619,-6.2915 21.68164,-6.2915 15.48667,0 24.29559,4.8249 30.42889,16.6667 5.4964,10.6121 6.23061,18.7571 6.27994,69.6667 l 0.0468,48.3333 h 5.33334 c 4.44444,0 5.33333,0.4445 5.33333,2.6667 0,2.5894 -0.88889,2.6666 -30.66667,2.6666 -29.77777,0 -30.66667,-0.077 -30.66667,-2.6666 0,-2.1647 0.8889,-2.6667 4.72231,-2.6667 h 4.72231 l -0.44403,-55 c -0.46725,-57.8776 -1.01899,-63.4889 -6.53265,-66.4397 -4.50515,-2.4111 -11.35284,-0.3036 -15.13794,4.6589 -6.61668,8.6749 -7.33,15.3097 -7.33,68.1792 v 48.6016 h 3.33334 c 2.44444,0 3.33333,0.7111 3.33333,2.6667 0,2.5894 -0.88889,2.6666 -30.66667,2.6666 -29.77777,0 -30.66666,-0.077 -30.66666,-2.6666 z m 448.00006,0 c 0,-2.2716 0.8888,-2.6667 6,-2.6667 h 6 v -87.3333 -87.3334 h -6 c -5.1112,0 -6,-0.395 -6,-2.6666 0,-2.5778 0.8888,-2.6667 26.6666,-2.6667 h 26.6667 v 90 90 h 6 c 5.1111,0 6,0.3951 6,2.6667 0,2.5941 -0.8889,2.6666 -32.6667,2.6666 -31.7778,0 -32.6666,-0.072 -32.6666,-2.6666 z m 89.3333,0 c 0,-2.3111 0.8889,-2.6667 6.6667,-2.6667 h 6.6666 v -62.6667 -62.6666 h -6.6666 c -5.7778,0 -6.6667,-0.3556 -6.6667,-2.6667 0,-2.5729 0.8889,-2.6667 25.2772,-2.6667 h 25.2773 l 0.3894,10.3334 0.3894,10.3333 3.6006,-6.1247 c 3.4347,-5.8425 9.8017,-11.7142 17.0534,-15.7267 4.7489,-2.6276 23.7964,-3.5335 30.1574,-1.4342 7.3861,2.4377 15.5458,11.1888 18.9726,20.3477 2.7758,7.419 2.8827,9.6551 2.8827,60.3213 v 52.6166 h 6.6667 c 5.7777,0 6.6666,0.3556 6.6666,2.6667 0,2.5894 -0.8889,2.6666 -30.6666,2.6666 -29.7778,0 -30.6667,-0.077 -30.6667,-2.6666 0,-1.9556 0.8889,-2.6667 3.3333,-2.6667 h 3.3334 v -56.7136 c 0,-51.4376 -0.2142,-57.0503 -2.3026,-60.3333 -3.2887,-5.1701 -4.4751,-5.7978 -9.5542,-5.0544 -6.6177,0.9685 -12.6674,8.1795 -14.8708,17.7252 -1.2494,5.4129 -1.9292,22.1072 -2.282,56.0428 l -0.5026,48.3333 h 4.0894 c 3.2005,0 4.0894,0.5797 4.0894,2.6667 0,2.5894 -0.8889,2.6666 -30.6666,2.6666 -29.7778,0 -30.6667,-0.077 -30.6667,-2.6666 z M 116.74796,1067.4746 c -9.39551,-2.3332 -14.92186,-10.3884 -14.93222,-21.7654 -0.009,-10.1629 3.41516,-15.3979 13.58748,-20.7718 5.39892,-2.8521 13.69958,-1.3724 18.61199,3.3178 0.96904,0.9252 2.20792,1.6822 2.75305,1.6822 2.26495,0 5.48504,9.8817 5.48504,16.8322 0,5.9561 -0.71868,8.4083 -3.66598,12.5085 -2.0163,2.805 -4.58936,5.6767 -5.71794,6.3815 -2.91541,1.8207 -11.98601,2.8419 -16.12142,1.815 z M -69.7467,983.27084 v -6.6667 h 466.66667 466.6667 v 6.6667 6.6666 H 396.91997 -69.7467 Z m 88,-44.7622 c -13.61741,-1.7257 -17.43965,-2.442 -31.33333,-5.8718 -8.33171,-2.0568 -21.33574,-6.3204 -26.86818,-8.8093 -2.31083,-1.0395 -4.74853,-1.8901 -5.41713,-1.8901 -1.14813,0 -5.30846,-1.8473 -23.3783,-10.3808 l -7.66361,-3.6192 -0.003,-70.33328 -0.003,-70.33333 h 11.77469 c 10.91295,0 11.87571,0.21956 13.15494,3 2.90352,6.31088 4.82756,11.46194 16.06143,42.99999 1.8285,5.13334 3.93381,10.83334 4.67847,12.66667 0.74466,1.83333 1.79337,4.53333 2.33047,6 0.5371,1.46667 1.61502,4.16667 2.39538,6 0.78036,1.83333 2.13149,5.73333 3.00251,8.66667 0.87102,2.93333 2.33725,7.13333 3.25828,9.33333 0.92104,2.2 3.67102,9.4 6.11107,16 2.44005,6.6 5.608,14.1 7.03989,16.66667 1.4319,2.56668 3.86107,7.03428 5.39816,9.92788 3.28397,6.1824 16.01225,19.4208 20.79471,21.6281 8.54712,3.945 17.86483,5.7773 29.37866,5.7773 26.31915,0 43.14216,-8.9549 55.10659,-29.3333 12.28898,-20.93121 17.878,-56.76901 16.32306,-104.66665 -0.83922,-25.85178 -4.662,-49.94497 -8.88529,-56 -0.51148,-0.73333 -1.38248,-2.83333 -1.93553,-4.66666 -2.87808,-9.54067 -21.9091,-29.33334 -28.20454,-29.33334 -0.98062,0 -1.78294,-0.6 -1.78294,-1.33333 0,-0.73333 -1.08,-1.33333 -2.4,-1.33333 -1.32,0 -2.97,-0.5652 -3.66667,-1.256 -2.27272,-2.2536 -30.38283,-6.5575 -43.6,-6.67554 l -7.66667,-0.0685 v -9.81428 -9.81428 l 7,-0.8408 c 3.85,-0.46244 11.26047,-0.84602 16.4677,-0.85239 5.20724,-0.007 11.20723,-0.54036 13.33334,-1.18664 2.12609,-0.64628 7.46563,-2.27268 11.86563,-3.6142 17.05812,-5.20092 28.46348,-17.86335 34.91633,-38.76478 3.60328,-11.67138 3.63676,-12.13356 3.65419,-50.44596 0.0183,-40.02846 -0.0564,-40.76888 -6.34296,-62.97994 -2.57131,-9.08458 -10.62496,-23.39761 -17.14613,-30.47224 -2.84278,-3.08405 -8.5516,-7.31897 -12.6863,-9.41093 -6.70933,-3.39461 -8.89081,-3.80356 -20.28971,-3.80356 -12.63401,0 -13.87314,0.29752 -26.75343,6.42351 -8.49526,4.04042 -28.01866,24.08622 -28.01866,28.76836 0,0.81114 -0.56784,1.4748 -1.26185,1.4748 -2.87678,0 -22.30758,43.1452 -28.82294,64 -1.26007,4.03333 -2.68469,8.23333 -3.16581,9.33333 -0.48112,1.1 -1.9806,5.6 -3.33219,10 -1.35158,4.4 -2.92678,9.2 -3.50043,10.66667 -0.57365,1.46666 -2.07112,5.51666 -3.3277,9 l -2.2847,6.33333 h -9.15219 -9.15219 v -65.91011 -65.91014 l 3,-0.94022 c 1.65,-0.5171 6.3,-2.46733 10.33333,-4.33382 9.59978,-4.44247 21.9852,-8.9504 36,-13.10298 10.37044,-3.07276 18.16766,-4.81921 38.66667,-8.66076 11.59663,-2.17321 60.53279,-2.99602 71.33334,-1.19938 27.27554,4.5372 44.7658,9.05076 58,14.96754 12.23104,5.46828 15.34933,6.96894 16,7.69987 0.36666,0.41189 2.91666,1.9296 5.66667,3.37268 2.75,1.44307 5,3.04689 5,3.56405 0,0.51715 1.13292,1.29986 2.51761,1.73934 3.01017,0.95538 20.83616,18.11654 25.6714,24.71397 3.96153,5.40529 11.04969,19.32467 14.25844,28 2.96141,8.00665 3.21764,48.83879 0.3514,56 -4.65493,11.63021 -12.4352,26.45908 -16.42815,31.31136 -22.01992,26.75897 -54.86739,43.83777 -102.37071,53.22689 -9.78444,1.93391 -9.87284,1.89068 11.33334,5.54176 15.73252,2.70869 54.33573,15.53167 58,19.26608 0.36667,0.37369 3.05752,1.87369 5.97965,3.33333 2.92215,1.45966 6.05624,3.34514 6.96464,4.18998 0.9084,0.84482 3.91756,2.93328 6.68702,4.641 20.97454,12.93342 39.30466,37.34593 46.41969,61.82293 3.21011,11.04337 3.19704,36.48168 -0.0257,50 -2.90579,12.18884 -12.00138,31.7053 -19.30824,41.42982 -8.09887,10.77858 -21.19542,23.82706 -28.75172,28.64626 -2.18095,1.3909 -4.26535,2.9131 -4.63202,3.3826 -1.72182,2.2045 -16.81096,10.9367 -27.48279,15.9045 -6.5178,3.034 -12.8924,6.0685 -14.16578,6.7433 -1.27339,0.6748 -3.48798,1.2268 -4.92131,1.2268 -1.43335,0 -2.93261,0.5284 -3.33173,1.1742 -0.39911,0.6458 -2.08451,1.4846 -3.74535,1.8641 -4.33639,0.9909 -24.84963,6.151 -30.35304,7.6354 -14.93827,4.0289 -58.04025,5.0183 -82.66667,1.8975 z m 682.66667,0.1346 c -17.4565,-2.2781 -47.4556,-9.9724 -54.9819,-14.1021 -1.2734,-0.6987 -2.9827,-1.2703 -3.7985,-1.2703 -1.5873,0 -4.9481,-1.4426 -22.2196,-9.537 l -11,-5.1553 v -63.9872 -63.98718 h 11.8965 11.8965 l 4.889,13 c 2.6889,7.15 5.3644,14.2 5.9457,15.66666 0.5812,1.46667 2.7097,7.16667 4.7299,12.66667 2.0202,5.5 4.1912,10.57 4.8245,11.26667 0.6332,0.69666 1.1513,2.0048 1.1513,2.90697 0,1.78505 5.3564,14.06207 13.0132,29.82636 4.8986,10.08555 16.3503,28.50645 21.5512,34.66665 4.8964,5.7997 13.9282,14.6667 14.9391,14.6667 0.535,0 1.7655,0.75 2.7345,1.6666 5.4713,5.1755 17.8331,9 29.0905,9 15.7257,0 25.2899,-3.7777 35.3381,-13.9581 8.469,-8.5803 15.0499,-21.7062 18.0701,-36.04185 4.5173,-21.44216 5.4412,-29.67704 6.5816,-58.66667 2.4074,-61.19594 -1.5182,-105.79762 -11.618,-131.99999 -12.497,-32.4215 -34.6509,-47.33334 -70.3211,-47.33334 -13.8664,0 -33.4416,4.23207 -36.7126,7.93707 -0.3666,0.41532 -2.9501,1.94939 -5.7409,3.40903 -2.7909,1.45965 -7.3178,4.7539 -10.0599,7.32057 -6.5654,6.14548 -16.1992,18.44116 -16.1992,20.67528 0,0.97304 -0.4717,1.96916 -1.0483,2.21361 -1.5101,0.64019 -8.285,16.8207 -8.285,19.78698 0,1.37504 -0.6,2.8709 -1.3333,3.32413 -0.7334,0.45323 -1.3334,1.98864 -1.3334,3.41203 0,2.34608 -0.997,2.58797 -10.6667,2.58797 h -10.6666 V 585.9375 463.27083 h 136.6667 136.6666 v 51.33333 51.33334 h -126.6666 -126.6667 l 0.045,52.33333 0.045,52.33333 4.2749,-5.33333 c 11.6886,-14.58243 34.2881,-34 39.5717,-34 0.7685,0 1.3973,-0.53003 1.3973,-1.17783 0,-0.6478 1.05,-1.50804 2.3334,-1.91164 1.2833,-0.40361 5.0333,-1.73417 8.3333,-2.95681 16.4096,-6.07972 19.6466,-6.48244 52.6667,-6.55249 22.2473,-0.0472 34.4381,0.4806 40,1.73178 4.4,0.98984 11.9,2.66995 16.6666,3.73359 7.504,1.67445 16.1393,4.48769 26,8.47042 13.1803,5.3235 32.5008,16.17075 38.5848,21.66298 1.4216,1.28333 3.0074,2.33333 3.5241,2.33333 0.5166,0 4.8492,3.75 9.6279,8.33333 16.9248,16.23275 25.9432,29.24252 35.0504,50.56308 4.0789,9.54894 6.0897,16.61084 9.7396,34.20531 1.7858,8.60823 1.9544,46.19885 0.2422,53.97452 -0.677,3.07473 -2.2649,10.39042 -3.5285,16.25709 -3.9542,18.35861 -16.8911,44.593 -29.0182,58.84517 -6.1827,7.26618 -18.7425,18.96388 -25.5772,23.82148 -2.0636,1.4667 -4.4029,3.3024 -5.1985,4.0793 -0.7956,0.777 -3.2466,2.3365 -5.4466,3.4656 -7.7532,3.9793 -13.3386,7.1303 -13.9989,7.8976 -0.5493,0.6383 -10.151,4.6254 -28.6677,11.9044 -1.4667,0.5766 -6.8667,2.041 -12,3.2543 -5.1334,1.2133 -11.4334,2.7591 -14,3.4352 -14.9198,3.9299 -58.3674,4.9997 -81.3334,2.0027 z m -381.06653,-15.0391 0.39987,-7.6667 16.33333,-0.3743 16.33333,-0.3744 0.027,-26.29229 c 0.069,-67.10715 12.7055,-115.25008 44.3449,-168.9492 4.324,-7.3387 8.4091,-13.54309 9.0782,-13.78753 0.669,-0.24445 1.2164,-0.93416 1.2164,-1.53268 0,-1.60436 18.4348,-28.23624 21.2435,-30.68955 0.4198,-0.36666 3.4618,-4.26666 6.7599,-8.66666 3.2981,-4.4 6.5966,-8.72918 7.33,-9.6204 0.7333,-0.89122 1.9409,-2.39122 2.6836,-3.33334 7.3459,-9.31854 19.6827,-24.13966 23.983,-28.81261 2.9334,-3.18752 5.8164,-6.64984 6.4068,-7.69406 0.5904,-1.04422 2.3904,-3.27531 4,-4.95798 1.6096,-1.68268 4.3844,-4.8269 6.1663,-6.98717 4.8126,-5.83487 16.6593,-19.82803 17.4352,-20.59444 0.3712,-0.36667 3.8806,-4.41667 7.7986,-9 l 7.1236,-8.33333 H 399.71847 280.91992 v 24 24 h -10 -10 v -75.33334 -75.33333 h 160.10595 160.1059 l -0.9421,4.28957 c -0.5182,2.35926 -1.3959,5.20926 -1.9504,6.33334 -0.5545,1.12406 -1.617,3.54376 -2.3612,5.37709 -0.7441,1.83333 -2.2392,5.43333 -3.3226,8 -1.0833,2.56667 -4.2366,10.66667 -7.0073,18 -2.7707,7.33333 -5.4763,13.93333 -6.0123,14.66667 -0.5361,0.73333 -1.4132,3.43333 -1.9493,6 -0.536,2.56666 -1.552,5.3844 -2.2577,6.26162 -0.7057,0.87724 -2.6415,5.37724 -4.3017,10 -3.1957,8.89846 -8.9738,23.53148 -12.7956,32.40504 -1.2634,2.93334 -2.7231,6.83334 -3.2437,8.66667 -0.5207,1.83333 -1.744,5.13333 -2.7186,7.33333 -9.0151,20.34998 -30.3615,79.83747 -37.3193,104 -1.267,4.4 -2.7795,9.5 -3.3611,11.33333 -0.5817,1.83334 -2.0517,7.53334 -3.2668,12.66667 -1.2151,5.13333 -2.77,11.43333 -3.4554,14 -7.6876,28.78896 -14.2044,92.48994 -15.175,148.33333 l -0.5967,34.33335 h 16.5791 16.5792 v 8 8 h -91.3999 -91.39986 l 0.39988,-7.6667 z M 84.2533,405.8933 C 3.58663,405.39777 -66.54552,404.90499 -71.59592,404.79825 l -9.18254,-0.19408 0.68559,-8.541 c 0.37707,-4.69755 1.65922,-9.93106 2.84921,-11.63002 1.18999,-1.69894 2.16362,-4.17433 2.16362,-5.50084 0,-3.34546 3.43675,-4.33342 7.0103,-2.01525 2.37822,1.54277 11.78452,2.12389 45.98971,2.84129 37.99271,0.79684 43,0.66571 43,-1.12616 0,-1.11541 -0.95933,-2.02802 -2.13183,-2.02802 -1.17251,0 -4.02251,-0.82795 -6.33333,-1.8399 -4.56215,-1.99781 -15.71993,-4.45577 -24.20151,-5.33137 -2.93333,-0.30281 -13.13333,-1.60779 -22.66667,-2.89992 -18.94252,-2.56744 -25.18792,-2.81017 -33.44453,-1.29987 -5.27478,0.96487 -5.50106,0.85627 -7.25763,-3.48318 -0.99721,-2.4635 -2.434,-4.89907 -3.19286,-5.41236 -1.74135,-1.17787 -2.7735,-20.11442 -1.24413,-22.82578 2.89991,-5.14117 14.26541,-15.68324 16.13484,-14.96586 1.09848,0.42152 7.47383,1.68458 14.16744,2.80678 6.69361,1.12222 14.8702,2.55698 18.1702,3.18836 3.30001,0.6314 13.20001,2.42454 22.00001,3.98475 8.8,1.56021 19,3.45388 22.66666,4.20815 11.51907,2.36958 14.61584,2.20465 15.04836,-0.80147 0.40163,-2.79148 -1.95057,-3.69284 -35.04836,-13.43037 -5.86666,-1.726 -16.66666,-5.02299 -24,-7.32663 -9.92142,-3.11663 -15.63637,-4.14853 -22.33333,-4.03252 -8.48676,0.14703 -9.00334,-0.016 -9.05855,-2.85812 -0.0322,-1.65771 -0.57886,-7.51097 -1.21479,-13.00725 -0.85805,-7.41611 -0.70885,-11.06395 0.57858,-14.14519 l 1.7348,-4.15198 16.47998,3.56567 16.47998,3.5657 1.5036,-3.4205 c 0.82698,-1.88126 3.44298,-8.82047 5.81333,-15.42047 2.37036,-6.6 4.82254,-13.2 5.4493,-14.66667 0.62675,-1.46667 2.21794,-5.96667 3.53596,-10 1.31802,-4.03333 3.67283,-9.43333 5.23291,-12 1.56008,-2.56667 6.49234,-11.68009 10.96058,-20.25205 7.7975,-14.95888 11.82964,-21.78358 23.50432,-39.78279 2.93333,-4.52241 6.00518,-9.39779 6.82633,-10.83417 0.82115,-1.43639 5.02115,-6.35827 9.33334,-10.93751 7.17525,-7.61964 18.82844,-20.45779 33.97617,-37.43103 5.8456,-6.550084 21.96635,-22.354534 30.20118,-29.608624 6.00442,-5.28933 10.18294,-8.31338 20.99632,-15.19536 5.13333,-3.26701 9.93333,-6.40111 10.66666,-6.96467 5.73726,-4.40897 25.14383,-16.38616 30,-18.51515 3.30001,-1.44675 12.60001,-5.96133 20.66667,-10.0324 8.06667,-4.07106 19.16667,-9.16646 24.66667,-11.32311 5.5,-2.15664 12.7,-5.14994 16,-6.65178 11.29737,-5.14146 14.01741,-6.15257 26,-9.66491 6.6,-1.9346 13.8,-4.0607 16,-4.72468 2.2,-0.66398 8.5,-2.19142 14,-3.3943 11.61424,-2.54012 19.01254,-4.36603 24.76134,-6.111148 2.25206,-0.683641 5.10206,-1.242985 6.33333,-1.242985 1.71111,0 2.23867,-1.218366 2.23867,-5.170073 0,-8.872684 2.03408,-9.354364 22.99999,-5.446553 8.9876,1.67519 9,1.68365 9,6.147062 0,2.45826 -0.6763,4.469564 -1.503,4.469564 -1.5378,0 -1.3995,2.230952 1.3639,22.000003 0.7175,5.13333 2.2657,16.53333 3.4405,25.33333 1.1747,8.8 2.6346,19.64385 3.2441,24.09744 0.6095,4.45359 1.8113,9.41122 2.6707,11.01695 1.3137,2.45465 2.004,2.68321 4.3354,1.43548 2.6964,-1.44309 2.7506,-2.13309 1.9652,-25.01695 -2.0533,-59.820725 -2.2027,-61.486953 -5.5918,-62.337551 -7.0489,-1.769158 -3.7242,-7.456889 11.5529,-19.764309 1.7538,-1.41292 6.5353,-5.46292 10.6255,-9 4.0903,-3.53708 8.4258,-6.43106 9.6347,-6.43106 1.2088,0 7.1303,4.65 13.1588,10.33333 6.0286,5.68334 13.393,12.62266 16.3654,15.42073 5.7734,5.434793 5.7092,5.841375 -1.5883,10.052771 -2.1458,1.238411 -4.0356,26.034069 -4.5873,60.193169 l -0.42,26 2.9871,0.42438 c 4.7804,0.67916 5.2174,-1.03249 10.4907,-41.09105 3.4891,-26.50498 4.3334,-32.52592 5.2819,-37.666663 0.6225,-3.373979 0.4322,-5 -0.5853,-5 -0.8305,0 -1.5078,-2.068998 -1.5078,-4.606249 0,-4.292459 0.3407,-4.660444 5,-5.401789 2.75,-0.437547 7.4,-1.330879 10.3334,-1.985179 11.9622,-2.66827 12.0794,-2.66719 14.4768,0.13285 1.4103,1.647047 2.1734,4.348129 1.9285,6.825571 -0.4016,4.062322 -0.3137,4.122728 9.5947,6.591765 5.5,1.37053 13.9,3.334559 18.6666,4.36451 4.7667,1.02995 11.0667,2.553034 14,3.384634 2.9334,0.8316 7.7334,2.1087 10.6667,2.83801 7.8523,1.95229 28.3306,9.0873 35.996,12.54169 3.6689,1.65334 8.7707,3.75249 11.3373,4.66478 4.0233,1.43001 23.5064,10.6459 54.3179,25.69346 4.5748,2.23423 9.3748,5.0249 10.6667,6.20149 1.2918,1.1766 9.8488,6.9161 19.0155,12.75446 9.1666,5.83835 17.8298,11.67677 19.2514,12.97426 1.4216,1.29749 3.0782,2.35907 3.6814,2.35907 0.6031,0 9.94,8.89192 20.7485,19.75981 17.2273,17.321844 23.3,23.790704 39.6535,42.240194 1.9501,2.2 6.3475,7.06905 9.772,10.82012 7.8588,8.60813 16.2265,19.22673 16.2265,20.59149 0,0.57411 3,5.88083 6.6667,11.79272 3.6666,5.91188 6.6666,11.02932 6.6666,11.37209 0,0.34278 1.7246,3.20331 3.8324,6.35674 2.1078,3.15342 4.2955,7.2335 4.8615,9.06684 0.566,1.83333 2.3065,5.43333 3.8679,8 4.249,6.98472 9.3231,17.92074 14.5381,31.33333 9.7418,25.05535 11.5668,30.0808 11.5668,31.85077 0,1.0025 0.9086,2.5768 2.0192,3.49848 1.6365,1.35823 4.4789,1.14082 15,-1.14736 7.1394,-1.55272 14.1808,-3.15414 15.6475,-3.55872 1.9871,-0.54816 3.0913,0.19327 4.3333,2.90978 2.078,4.54504 2.0928,7.76354 0.096,20.88256 l -1.5885,10.4355 -4.5067,-0.84545 c -5.0263,-0.94295 -15.9122,0.933 -27.0007,4.653 -4.0333,1.35312 -13.6333,4.33269 -21.3333,6.62129 -32.7794,9.74271 -36.6994,11.26675 -36.2066,14.07678 0.6223,3.54825 0.2761,3.45984 7.6521,1.95402 3.605,-0.73597 11.9545,-2.25401 18.5545,-3.37344 6.6,-1.11941 15,-2.64528 18.6667,-3.39081 11.9884,-2.43755 18.4868,-3.63552 30.6666,-5.65333 6.6,-1.09342 13.5397,-2.38351 15.4215,-2.86687 3.0105,-0.77331 4.6117,0.41201 13.3333,9.87001 5.4516,5.91188 9.9119,11.2095 9.9119,11.77248 0,1.66114 -10.5111,22.11555 -12.3943,24.11904 -1.4302,1.52156 -2.7502,1.55171 -7.667,0.17511 -3.5287,-0.98799 -8.5097,-1.3091 -12.2723,-0.79116 -6.2105,0.85489 -25.8428,3.4315 -45.6664,5.99342 -5.5,0.7108 -10.9,1.56295 -12,1.89366 -12.4427,3.74081 -17.292,5.71146 -16.9051,6.86984 0.3106,0.93 14.218,1.24909 42.3505,0.97166 35.4953,-0.35001 42.5337,-0.74398 46.119,-2.58145 3.5132,-1.80048 4.5878,-1.87237 6.3333,-0.42368 1.1563,0.95959 2.1023,2.46956 2.1023,3.35549 0,0.88592 1.4783,4.53084 3.2852,8.09982 3.92,7.74304 5.1079,12.67954 3.61,15.00138 -1.5051,2.33288 -384.4741,4.73602 -389.4389,2.44374 -5.2823,-2.43887 -6.212,-5.19675 -3.6043,-10.69207 1.3333,-2.80965 1.9504,-6.10987 1.463,-7.82463 -1.6043,-5.645 -7.9305,-20.3007 -8.9539,-20.7433 -0.5653,-0.24446 -1.0278,-1.17242 -1.0278,-2.06215 0,-4.36247 -14.4128,-18.75377 -26.6667,-26.627 -4.7667,-3.06263 -12.2667,-6.68168 -16.6667,-8.04235 -4.4,-1.36068 -9.7395,-3.00273 -11.8656,-3.64901 -5.3883,-1.63791 -30.6815,-1.47115 -37.313,0.24603 -22.1171,5.72705 -30.1422,9.91876 -43.43685,22.68818 -10.88626,10.45622 -14.36968,16.14163 -21.37715,34.89032 -2.55221,6.82855 -2.64587,7.88572 -0.85701,9.67456 3.67296,3.67298 4.01408,7.42054 0.95417,10.48256 -2.76357,2.76548 -3.88945,2.8459 -41.13959,2.93835 -21.06405,0.0523 -104.29827,-0.31039 -184.96494,-0.80592 z m 119.70851,-13.28807 c 86.16558,-0.001 91.75397,-0.14209 92.46043,-2.3344 0.41355,-1.28333 3.09472,-7.24772 5.95815,-13.2542 2.86344,-6.00648 5.20625,-11.55648 5.20625,-12.33333 0,-0.77685 0.6,-1.41247 1.33334,-1.41247 0.73333,0 1.33333,-0.76976 1.33333,-1.71057 0,-2.45553 4.71668,-8.34983 14.67519,-18.33916 6.55709,-6.57739 11.79404,-10.25487 21.34047,-14.98567 13.3381,-6.60977 17.9507,-7.8939 39.088,-10.88182 16.9634,-2.39792 33.2977,-0.2174 45.2116,6.03544 1.2734,0.66832 2.9522,1.21512 3.7307,1.21512 0.7785,0 4.6983,2.1 8.7106,4.66666 4.0124,2.56667 7.7944,4.66667 8.4045,4.66667 1.3212,0 15.3234,13.81707 20.4527,20.18223 4.1097,5.09997 16.4701,29.28206 17.7967,34.81777 l 0.8786,3.66667 h 134.9708 c 74.2339,0 156.6689,0.39728 183.1888,0.88285 49.3022,0.90269 50.9983,0.75452 46.2068,-4.03699 -1.6938,-1.6937 -5.8515,-1.91324 -26.3334,-1.39036 -13.3771,0.34151 -35.0307,1.26511 -48.119,2.05243 -15.1024,0.90849 -24.2618,0.96669 -25.0691,0.15931 -0.6998,-0.69972 -2.1979,-6.6111 -3.3292,-13.1364 -2.5771,-14.86496 -5.9206,-31.98088 -11.0428,-56.53084 -3.3366,-15.99163 -3.4825,-15.22312 3.5521,-18.70754 9.0305,-4.47298 12.5412,-7.8616 11.6068,-11.20318 -0.8252,-2.951 -1.8045,-5.20499 -9.0184,-20.75595 -2.5514,-5.5 -5.4188,-12.25 -6.3719,-15 -0.9531,-2.75 -2.1473,-5 -2.6539,-5 -0.5065,0 -1.3137,-1.65 -1.7939,-3.66666 -1.0782,-4.52875 -11.9839,-28.46066 -14.4305,-31.66667 -0.5596,-0.73333 -2.863,-3.73333 -5.1187,-6.66667 -2.2558,-2.93333 -5.25,-6.83333 -6.6538,-8.66666 -31.4942,-41.1295 -31.3137,-40.90847 -39.754,-48.68908 -3.9641,-3.65434 -9.9641,-9.26831 -13.3333,-12.4755 -19.7168,-18.76885 -32.6494,-30.37078 -35.834,-32.14692 -1.9938,-1.11201 -3.9251,-2.33497 -4.2918,-2.71768 -0.3667,-0.3827 -4.8667,-3.379944 -10,-6.660504 -5.1333,-3.28057 -9.5333,-6.41745 -9.7778,-6.97084 -0.2444,-0.55337 -1.2444,-1.00615 -2.2222,-1.00615 -0.9778,0 -1.9778,-0.4697 -2.2222,-1.0438 -0.6106,-1.43409 -18.0516,-12.28953 -19.7451,-12.28953 -0.7513,0 -1.366,-0.6 -1.366,-1.33333 0,-0.73334 -0.8056,-1.33334 -1.7901,-1.33334 -0.9846,0 -5.9346,-2.05194 -11,-4.55988 -15.044,-7.44837 -26.7145,-12.52295 -32.8125,-14.2675 -3.1519,-0.90173 -6.3308,-2.05622 -7.0641,-2.56554 -0.7333,-0.50932 -3.4438,-1.30528 -6.0232,-1.7688 -2.5794,-0.46351 -9.4794,-2.41648 -15.3333,-4.33991 -11.3448,-3.72759 -39.7943,-8.51391 -42.1077,-7.08416 -0.7628,0.47147 -1.1955,3.19116 -0.9614,6.04375 0.3285,4.00337 1.0339,5.26873 3.0923,5.54688 5.0746,0.68574 17.3748,3.36902 27.3333,5.96272 14.5951,3.80133 17.5599,4.62019 22,6.07626 2.2,0.72146 6.7,2.05041 10,2.95322 5.1456,1.40771 10.4075,3.39028 24.6667,9.29371 1.4666,0.60721 4.8573,2.0652 7.5348,3.23997 2.6775,1.17478 5.2214,2.13595 5.653,2.13595 0.4317,0 4.9972,2.7 10.1455,6 5.1483,3.3 9.9545,6 10.6803,6 0.7258,0 1.3197,0.6 1.3197,1.33333 0,0.73334 0.6852,1.33334 1.5226,1.33334 0.8374,0 5.3227,2.4 9.9673,5.33333 4.6446,2.933334 9.0095,5.333334 9.6997,5.333334 0.6901,0 1.4549,0.48333 1.6993,1.07408 0.2444,0.59073 6.4444,5.34619 13.7778,10.56765 14.1322,10.0624 16.2486,11.81748 33.8262,28.05164 10.7891,9.96443 19.1458,18.41254 30.6384,30.9733 9.7292,10.63353 29.6813,39.90145 39.5442,58.00766 2.7939,5.12912 7.3849,13.42939 10.2022,18.44504 2.8173,5.01567 5.1223,9.93026 5.1223,10.92132 0,0.99106 0.6,2.17275 1.3334,2.62598 0.7333,0.45322 1.3333,1.74796 1.3333,2.87718 0,1.12923 0.9612,4.24382 2.1359,6.92131 1.1748,2.67749 2.603,6.06817 3.1738,7.53484 0.5707,1.46666 2.1034,5.22278 3.406,8.34693 1.3025,3.12413 2.0175,6.03097 1.5888,6.45963 -0.4286,0.42866 -2.6696,0.87254 -4.9799,0.98641 -3.8548,0.18999 -4.3638,-0.28684 -6.1841,-5.79297 -1.091,-3.3 -2.8439,-7.89068 -3.8954,-10.20151 -1.0515,-2.31083 -1.9118,-4.86897 -1.9118,-5.68476 0,-0.81579 -0.5354,-2.52511 -1.1899,-3.79849 -0.6544,-1.27339 -3.3992,-6.81524 -6.0996,-12.31524 -6.4652,-13.16804 -11.8235,-23.17283 -12.8539,-24 -0.4568,-0.36667 -1.2518,-2.01667 -1.7667,-3.66667 -0.5149,-1.65 -1.4958,-3 -2.1797,-3 -0.6839,0 -1.2435,-0.51692 -1.2435,-1.1487 0,-1.01026 -18.1508,-29.31522 -21.0884,-32.88595 -0.619,-0.7524 -2.1617,-2.94964 -3.4284,-4.88276 -5.5188,-8.42279 -38.2734,-42.29761 -51.3272,-53.08259 -3.1066,-2.56666 -7.2626,-6.06542 -9.2355,-7.77502 -1.973,-1.70959 -5.9872,-4.70398 -8.9205,-6.65419 -2.9334,-1.9502 -5.6334,-3.89663 -6,-4.32539 -0.3667,-0.42876 -2.6167,-1.91374 -5,-3.29996 -2.3834,-1.38621 -4.3334,-2.99102 -4.3334,-3.56625 0,-0.57521 -0.9,-1.04585 -2,-1.04585 -1.1,0 -2.0038,-0.45 -2.0084,-1 -0.012,-1.35975 -5.6389,-4.6179 -39.9916,-23.154034 -3.2821,-1.77101 -17.3518,-7.84597 -18.1713,-7.84597 -0.4174,0 -2.6497,-0.83576 -4.9605,-1.85725 -6.0843,-2.68952 -8.8806,-3.73023 -14.8682,-5.53355 -2.9333,-0.88345 -9.5333,-3.12907 -14.6666,-4.99027 -10.1285,-3.67229 -24.9629,-6.96375 -36.8335,-8.17262 l -7.5001,-0.76379 -2.7465,6.32541 -2.7465,6.3254 8.2466,2.42751 c 4.5357,1.33513 10.3466,2.96413 12.9133,3.62 2.5667,0.65587 6.0167,1.55391 7.6667,1.99567 3.203,0.85756 3.7891,3.22444 1.727,6.97492 -1.2485,2.2707 -8.4742,25.228514 -15.4166,48.981904 -1.9289,6.6 -4.712,15.9 -6.1846,20.66667 -1.4726,4.76666 -3.1817,10.46666 -3.7979,12.66666 -1.9183,6.84814 -9.4805,31.64064 -11.9976,39.33334 -1.3197,4.03333 -2.7533,9.80394 -3.1858,12.82358 -0.4324,3.01964 -1.6882,7.21964 -2.7905,9.33334 -1.1024,2.11369 -2.008,4.69909 -2.0125,5.74533 -0.01,1.76623 -2.7348,10.59491 -13.8277,44.76441 l -4.3286,13.33333 -20.7354,0.36623 c -15.5886,0.27532 -21.0577,-0.0556 -22.0337,-1.33333 -1.3301,-1.741 -5.3667,-13.78543 -11.741,-35.03289 -1.9801,-6.6 -4.142,-13.37823 -4.8043,-15.06274 -0.6623,-1.6845 -1.2042,-3.99382 -1.2042,-5.13182 0,-1.138 -0.8706,-3.95978 -1.9346,-6.2706 -1.0641,-2.31083 -3.1217,-8.70151 -4.5725,-14.20151 -3.3782,-12.80692 -8.64869,-30.976 -11.21645,-38.66667 -1.10181,-3.3 -3.9577,-12.9 -6.34644,-21.33333 -2.38873,-8.43333 -6.35018,-21.48417 -8.80322,-29.00187 -2.45304,-7.51769 -4.46008,-14.57584 -4.46008,-15.68476 0,-1.10892 -0.55015,-3.05808 -1.22255,-4.33146 -0.6724,-1.27339 -2.20757,-5.91524 -3.41149,-10.315244 -1.20392,-4.4 -2.75378,-9.04185 -3.44412,-10.31524 -2.70983,-4.99843 -1.48035,-7.35736 4.98234,-9.55943 3.43064,-1.16893 7.3679,-2.12533 8.74947,-2.12533 2.85843,0 15.67968,-4.00124 15.67968,-4.89329 0,-0.32249 -1.18233,-3.18172 -2.6274,-6.35384 l -2.62739,-5.76749 -6.37261,0.60452 c -13.72664,1.30213 -29.9584,4.89122 -38.3726,8.48477 -1.46667,0.62639 -7.46667,2.70306 -13.33333,4.61484 -5.86667,1.91177 -11.86667,4.00705 -13.33334,4.65617 -1.46667,0.64913 -7.46667,3.12489 -13.33333,5.50169 -5.86667,2.37682 -13.96667,6.21888 -18,8.53794 -4.03334,2.31906 -9.28334,5.05253 -11.66667,6.0744 -2.38333,1.02185 -4.33333,2.31145 -4.33333,2.86577 0,0.554324 -0.69747,1.007854 -1.54994,1.007854 -1.79626,0 -14.90044,8.12007 -15.56117,9.64257 -0.24445,0.56326 -0.9678,1.0241 -1.60745,1.0241 -1.61171,0 -22.42959,14.58149 -27.94811,19.57573 -1.1,0.99549 -4.7,4.0482 -8,6.7838 -8.21072,6.80641 -39.68132,38.31547 -45.37075,45.42617 -2.54608,3.18214 -5.26785,6.48214 -6.04837,7.33334 -0.78052,0.85118 -3.68592,5.09589 -6.45646,9.43265 -2.77053,4.33676 -5.88193,8.72963 -6.91421,9.76191 -1.03228,1.03228 -1.87688,2.68401 -1.87688,3.67053 0,0.98651 -0.48493,1.99364 -1.07764,2.23809 -1.20129,0.49544 -9.18189,12.57112 -13.07079,19.77778 -1.38502,2.56666 -2.81824,4.96666 -3.1849,5.33333 -0.92396,0.92396 -13.00641,24.42621 -15.76566,30.66667 -1.77972,4.02513 -6.62889,17.67627 -8.40687,23.66666 -1.31815,4.44113 -2.28115,4.88999 -7.49414,3.49295 -3.55539,-0.9528 -3.74453,-3.0597 -0.86406,-9.62478 1.17477,-2.67749 2.6136,-6.06817 3.19739,-7.53484 0.58379,-1.46666 2.02262,-4.85734 3.19739,-7.53484 1.17477,-2.67749 2.13594,-5.27437 2.13594,-5.77083 0,-1.21516 9.56954,-21.18446 10.55592,-22.02766 0.42894,-0.36666 2.14186,-3.36666 3.8065,-6.66666 1.66462,-3.3 4.51,-8.4 6.32304,-11.33334 1.81304,-2.93333 3.71693,-6.23333 4.23088,-7.33333 0.51395,-1.1 1.71803,-2.79285 2.67573,-3.76191 0.9577,-0.96904 1.74127,-2.61904 1.74127,-3.66666 0,-1.04762 0.48952,-1.90476 1.08781,-1.90476 0.5983,0 2.36266,-2.25 3.9208,-5 1.55815,-2.75 3.75868,-6.2 4.89007,-7.66667 1.1314,-1.46667 4.46107,-5.96667 7.39925,-10 12.66399,-17.3842 44.11716,-48.95253 63.36514,-63.59715 3.66469,-2.78824 7.45754,-5.81952 8.42857,-6.73618 0.97103,-0.91667 2.17264,-1.66808 2.67027,-1.6698 0.49761,-10e-4 3.00476,-1.8046 5.57143,-4.00642 2.56666,-2.20181 5.71666,-4.34084 7,-4.75338 1.28333,-0.41256 2.33333,-1.30967 2.33333,-1.99359 0,-0.68391 0.9,-1.24348 2,-1.24348 1.1,0 2,-0.6 2,-1.33333 0,-0.73334 0.69459,-1.33334 1.54352,-1.33334 0.84895,0 6.2688,-3.000004 12.04415,-6.666664 5.77533,-3.66667 10.80957,-6.66667 11.18718,-6.66667 0.37762,0 3.9694,-2.1 7.98175,-4.66666 4.01235,-2.56667 7.62197,-4.66667 8.02139,-4.66667 0.39942,0 4.00556,-1.5 8.01362,-3.33333 4.00808,-1.83334 7.85635,-3.33334 8.5517,-3.33334 0.69536,0 4.42757,-1.44742 8.29382,-3.2165 3.86624,-1.76907 9.72954,-3.93112 13.02954,-4.80454 3.3,-0.87343 8.4,-2.33423 11.33333,-3.24623 2.93334,-0.91201 7.43334,-2.30516 10,-3.09589 2.56667,-0.79074 12.16667,-3.05544 21.33334,-5.03267 9.16666,-1.97722 17.41666,-3.80319 18.33333,-4.05771 2.36256,-0.65598 2.14608,-9.77951 -0.25389,-10.70047 -3.53319,-1.35581 -30.58791,3.10288 -44.74611,7.37428 -28.25972,8.5257 -38.77682,12.5664 -57.33334,22.02764 -3.3,1.68254 -7.4161,3.50148 -9.14689,4.04211 -3.83335,1.19734 -28.67603,16.67117 -29.29755,18.24862 -0.24445,0.62042 -0.92813,1.12803 -1.5193,1.12803 -2.39968,0 -29.21701,18.857504 -36.29213,25.520044 -4.17405,3.93064 -12.57405,11.80177 -18.66666,17.49141 -6.0926,5.68963 -14.74371,13.78963 -19.22467,18 -4.48095,4.21036 -12.87883,13.95521 -18.66195,21.65521 -5.78312,7.7 -10.82541,14.3 -11.20509,14.66667 -2.94484,2.84388 -21.31235,28.48972 -22.7817,31.80919 -1.02026,2.30494 -2.30856,4.19081 -2.86288,4.19081 -0.55432,0 -1.00785,0.63844 -1.00785,1.41877 0,0.78032 -1.5,4.69811 -3.33333,8.70618 -1.83334,4.00808 -3.33334,7.52777 -3.33334,7.82154 0,0.29376 -1.85682,4.62599 -4.12627,9.62715 -5.34426,11.77712 -8.32176,18.50244 -11.1094,25.09302 -1.24072,2.93334 -3.4306,7.6594 -4.8664,10.50238 -3.12587,6.18942 -2.80434,6.69638 8.15746,12.8621 l 8.22093,4.62407 -0.77002,6.00573 c -0.42352,3.30315 -1.35619,8.70572 -2.0726,12.00572 -0.71641,3.3 -2.27895,11.1 -3.47232,17.33334 -1.19336,6.23333 -2.66842,13.73333 -3.27791,16.66666 -0.6095,2.93334 -1.76416,9.23334 -2.56594,14 -0.80177,4.76667 -2.13418,11.21667 -2.96092,14.33334 l -1.50317,5.66666 -6.82672,-0.012 c -3.75469,-0.006 -14.92672,-0.57237 -24.82672,-1.258 -9.9,-0.68561 -28.97866,-1.41938 -42.39702,-1.6306 -20.39513,-0.32101 -24.60194,-0.06 -25.64625,1.59163 -0.68708,1.0866 -1.25842,2.52419 -1.26965,3.19464 -0.0123,0.73323 36.24284,0.86649 90.97959,0.3344 50.05,-0.48652 132.26883,-0.88507 182.70851,-0.88567 z M 48.14062,369.60417 c 0.4978,-3.11667 1.78016,-11.36667 2.84967,-18.33334 3.10824,-20.24662 3.92724,-23.64126 10.45465,-43.33333 5.87711,-17.73013 7.58633,-22.31948 10.29726,-27.64857 0.64777,-1.27339 1.17777,-2.96183 1.17777,-3.75211 0,-0.79027 1.54129,-4.84841 3.42509,-9.01809 1.8838,-4.16967 5.3247,-11.78123 7.6464,-16.91456 2.32172,-5.13333 4.68043,-9.53333 5.24158,-9.77777 0.56114,-0.24446 1.02026,-1.29446 1.02026,-2.33334 0,-1.03889 0.5037,-1.88889 1.11931,-1.88889 0.61563,0 1.73875,-1.35 2.49584,-3 1.83812,-4.00604 15.06191,-18.33416 16.91741,-18.3302 0.8071,0.001 3.56744,1.80031 6.13411,3.99687 2.56667,2.19656 5.07381,3.99514 5.57143,3.99686 0.49762,0.001 1.69762,0.7676 2.66666,1.70195 0.96906,0.93435 6.26191,4.93276 11.76191,8.88535 5.5,3.9526 10.3,7.55496 10.66667,8.00524 0.36666,0.45029 5.16666,4.18622 10.66666,8.30208 5.5,4.11586 11.4418,8.74904 13.20402,10.29594 1.76221,1.54692 3.56221,2.81399 4,2.81571 0.43779,10e-4 2.89599,1.80031 5.46265,3.99687 2.56667,2.19656 5.07382,3.99514 5.57143,3.99686 0.49763,0.001 1.89956,0.99794 3.11543,2.2138 1.21586,1.21587 3.94266,3.46587 6.05954,5 11.5807,8.39265 32.85424,24.36193 34.77663,26.10552 1.22319,1.10943 5.13061,4.11715 8.68316,6.68381 3.55255,2.56667 7.62261,5.71667 9.04457,7 1.42198,1.28334 2.98047,2.33334 3.46331,2.33334 0.48285,0 2.08973,1.05 3.57085,2.33333 1.48112,1.28333 4.42292,3.6394 6.53735,5.23569 11.75872,8.87732 29.24378,22.15587 29.66103,22.52526 0.26581,0.23532 -1.98797,5.4631 -5.00841,11.61732 l -5.49171,11.18945 -48.99159,0.88084 c -26.94537,0.48445 -79.52059,0.88172 -116.83382,0.8828 l -67.84222,0.002 z m 513.44605,4.6213 -56,-0.40841 -5.0487,-10.73608 c -4.5541,-9.6842 -5.5197,-15.81015 -2.4923,-15.81015 1.0948,0 14.2107,-9.40721 18.3331,-13.14921 1.5357,-1.39397 4.0389,-3.20173 5.5627,-4.01724 1.5238,-0.81552 3.5674,-2.24304 4.5412,-3.17227 0.9739,-0.92924 7.4706,-5.87681 14.4373,-10.99461 6.9667,-5.1178 13.3497,-9.91144 14.1846,-10.65255 3.1321,-2.78042 6.7932,-5.60422 17.8154,-13.741 6.2333,-4.60152 12.3437,-9.20564 13.5787,-10.23137 1.2349,-1.02572 3.9349,-2.95345 6,-4.28383 2.065,-1.33038 5.1319,-3.77015 6.8152,-5.42173 1.6834,-1.65157 3.5202,-3.00285 4.082,-3.00285 0.5617,0 2.1867,-1.05 3.6112,-2.33333 1.4244,-1.28334 6.1876,-5.03334 10.5847,-8.33334 4.3972,-3.3 8.7877,-6.75 9.7568,-7.66666 0.969,-0.91667 2.169,-1.6674 2.6667,-1.6683 0.4976,-8.9e-4 2.5043,-1.35089 4.4594,-3 1.955,-1.6491 4.7263,-3.97514 6.1585,-5.16897 1.4321,-1.19384 8.2325,-6.28308 15.112,-11.30945 6.8795,-5.02636 13.6713,-10.19959 15.0929,-11.49607 1.4216,-1.29647 3.4206,-2.35721 4.4423,-2.35721 2.2393,0 14.6194,12.78572 15.7114,16.22617 0.426,1.34227 1.2626,2.44049 1.8591,2.44049 0.5965,0 2.7809,3.45 4.8543,7.66667 2.0734,4.21667 4.7663,9.16667 5.9841,11 1.2178,1.83333 2.6756,4.83333 3.2395,6.66667 0.5639,1.83333 2.3511,6.33333 3.9715,10 3.7631,8.51521 7.8235,19.34354 10.7493,28.66666 1.2658,4.03333 2.7963,8.53333 3.4011,10 0.6049,1.46667 2.0766,5.96667 3.2706,10 1.194,4.03333 2.6733,8.53333 3.2874,10 0.6141,1.46667 1.4516,5.36667 1.861,8.66667 1.151,9.27644 4.5864,30.91408 5.5569,35 l 0.871,3.66666 -61.1555,-0.31846 c -33.6355,-0.17516 -86.3554,-0.50227 -117.1554,-0.7269 z M 290.25331,329.06838 c -4.76667,-4.10384 -11.86675,-10.23713 -15.77796,-13.62953 -3.91122,-3.39242 -8.09086,-6.72038 -9.28808,-7.39548 -1.19723,-0.67511 -3.44023,-2.47511 -4.98446,-4 -3.34413,-3.30227 -12.05826,-10.7977 -17.9495,-15.4392 -5.28284,-4.16218 -14.08035,-11.61547 -18.88563,-16 -2.00927,-1.83333 -5.59444,-4.83333 -7.96705,-6.66667 -2.37263,-1.83333 -8.55139,-6.94412 -13.73059,-11.35729 -5.1792,-4.41319 -10.81725,-9.21319 -12.52901,-10.66667 -1.71176,-1.45349 -4.41176,-3.75217 -6,-5.10817 -2.5386,-2.1674 -5.08484,-4.2722 -15.56663,-12.86787 -7.76,-6.36364 -13.99318,-11.65882 -16.48424,-14.00364 -1.56027,-1.46866 -5.53686,-4.76004 -8.83686,-7.31416 -3.3,-2.55412 -6.77961,-5.38924 -7.73248,-6.30026 -0.95286,-0.91104 -2.73284,-2.21626 -3.9555,-2.9005 -1.987,-1.11197 -2.01978,-1.64592 -0.3087,-5.02941 2.5999,-5.14104 33.56896,-35.99344 42.66335,-42.50264 4.03334,-2.88681 9.13334,-7.05639 11.33334,-9.26573 5.66165,-5.68571 20.72344,-15.53007 34,-22.22236 6.23333,-3.14203 11.53333,-6.18119 11.77777,-6.7537 0.24445,-0.57252 0.95259,-1.04093 1.57364,-1.04093 0.62107,0 4.92107,-1.70928 9.55556,-3.79839 4.63449,-2.0891 10.52636,-4.58966 13.09303,-5.556804 2.56666,-0.96712 5.26666,-2.17512 6,-2.68442 0.73333,-0.50931 2.85281,-1.28743 4.70997,-1.72915 3.18073,-0.75653 3.59487,-0.2064 7.13858,9.482814 2.06906,5.65727 4.37986,11.78595 5.13509,13.61928 2.92307,7.09579 3.54599,8.77574 4.44957,12 0.51379,1.83334 2.38571,6.63334 4.15982,10.66667 6.95266,15.80648 7.93542,18.23735 9.16377,22.66667 0.50843,1.83333 2.10593,6.03333 3.55001,9.33333 3.48692,7.96824 3.56507,8.1702 12.38263,32 4.20591,11.36667 8.67979,23.06667 9.94195,26 1.26214,2.93333 4.85962,12.23333 7.9944,20.66667 3.13477,8.43333 7.12637,18.49973 8.87022,22.36978 1.74385,3.87004 3.17065,7.62819 3.17065,8.35141 0,0.72324 0.6,2.50684 1.3333,3.96356 0.7334,1.45672 1.9334,3.84043 2.6667,5.29715 2.3962,4.75987 1.5291,9.53951 -2.3333,12.86133 -2.0167,1.73443 -4.07384,3.15424 -4.57145,3.15514 -0.49763,8.9e-4 -1.69763,0.76453 -2.66667,1.69696 -0.96905,0.93244 -5.67151,4.46257 -10.44992,7.84473 -4.7784,3.38217 -11.3784,8.35619 -14.66667,11.05337 -3.28825,2.69718 -7.0355,5.76704 -8.32722,6.82192 -1.29172,1.0549 -2.49172,1.90127 -2.66667,1.88084 -0.17495,-0.0204 -4.21809,-3.39482 -8.98476,-7.49865 z m 191.33336,2.72439 c -2.2,-1.8602 -8.8,-6.96714 -14.6667,-11.34874 -5.8667,-4.38161 -11.6692,-8.79154 -12.8945,-9.79985 -1.2253,-1.00831 -3.6253,-2.55479 -5.3333,-3.4366 -1.7081,-0.88183 -4.4435,-2.82167 -6.0789,-4.31075 -3.764,-3.4274 -3.0383,-7.51764 4.3098,-24.29266 1.6062,-3.66667 3.9856,-9.66667 5.2877,-13.33333 1.302,-3.66667 3.1424,-8.46667 4.0897,-10.66667 0.9473,-2.2 4.5326,-11.5 7.9672,-20.66667 3.4347,-9.16666 7.3002,-19.06666 8.5902,-22 1.2899,-2.93333 2.747,-6.9993 3.238,-9.0355 0.491,-2.03619 2.3773,-6.94775 4.1918,-10.91456 1.8144,-3.96682 3.299,-7.85899 3.299,-8.64926 0,-0.79028 0.5495,-2.47872 1.2212,-3.7521 2.4514,-4.64724 5.4454,-12.0892 5.4454,-13.53484 0,-0.81579 0.6,-2.67511 1.3334,-4.13183 3.2367,-6.42943 3.7127,-7.63868 4.603,-11.69233 0.5182,-2.35927 1.4945,-4.28958 2.1696,-4.28958 0.675,0 1.2274,-0.90814 1.2274,-2.01809 0,-1.10995 0.53,-3.05995 1.1778,-4.33333 1.557,-3.06071 3.0993,-6.96139 7.5054,-18.98191 2.0161,-5.5 4.4333,-11.8 5.3717,-14 0.9383,-2.2 2.2622,-5.8 2.9419,-8.000004 1.0574,-3.42234 1.7967,-3.93317 5.1195,-3.53722 2.136,0.25452 4.4837,0.90396 5.217,1.4432 0.7333,0.53923 3.4333,1.77171 6,2.73883 2.5667,0.967144 8.4585,3.467704 13.093,5.556804 4.6345,2.08911 8.9345,3.79839 9.5556,3.79839 0.6211,0 1.3292,0.4746 1.5736,1.05467 0.2445,0.58006 6.1445,3.9404 13.1111,7.46741 6.9667,3.52701 13.8667,7.45535 15.3334,8.72965 1.4666,1.2743 5.0666,3.74562 8,5.49183 2.9333,1.74621 7.1333,5.02508 9.3333,7.28636 2.2,2.26127 7.9,7.06048 12.6667,10.66489 13.4227,10.14987 39.9306,37.22848 40.7217,41.59859 0.5794,3.19981 -0.1899,4.34465 -5.6262,8.37327 -3.4635,2.56666 -7.8568,6.16666 -9.7628,8 -1.9061,1.83333 -5.6972,5.02264 -8.4247,7.08733 -2.7275,2.06471 -6.5522,5.23043 -8.4993,7.03493 -1.9471,1.80451 -5.2643,4.6152 -7.3717,6.24599 -2.1073,1.6308 -5.4946,4.46508 -7.5272,6.29841 -2.0326,1.83334 -5.163,4.53334 -6.9565,6 -1.7935,1.46667 -6.5517,5.35842 -10.5738,8.64834 -4.0221,3.28992 -7.6129,6.29116 -7.9795,6.66942 -0.3667,0.37826 -6.0667,5.15259 -12.6667,10.6096 -6.6,5.45703 -12.6,10.56147 -13.3333,11.3432 -0.7334,0.78173 -10.3334,8.91015 -21.3334,18.06313 -11,9.15299 -20.8019,17.40639 -21.782,18.3409 -0.9802,0.9345 -3.9802,3.33338 -6.6667,5.33085 -2.6865,1.99747 -5.7846,4.5554 -6.8846,5.68428 -3.3961,3.48524 -12.9875,10.64625 -14.1919,10.59567 -0.6278,-0.0264 -2.9414,-1.56994 -5.1414,-3.43012 z M 32.87306,315.35849 c 2.2719,-4.2451 1.64886,-5.24104 -4.28643,-6.85198 -5.06808,-1.37556 -15.68898,-5.01104 -23,-7.8728 -1.46666,-0.57409 -8.96666,-2.97758 -16.66666,-5.34109 -7.7,-2.36351 -14.9,-4.71351 -16,-5.22221 -1.1,-0.50872 -5.60001,-2.02139 -10.00001,-3.36151 -4.4,-1.34012 -9.04185,-2.96192 -10.31524,-3.60399 -1.27338,-0.64208 -4.19336,-1.16741 -6.48884,-1.16741 -3.6775,0 -4.07803,0.3566 -3.36963,3 0.44218,1.65 0.81216,4.50567 0.82217,6.34593 0.033,6.07116 4.94193,7.69823 62.68488,20.77711 8.43333,1.91016 16.83333,3.95008 18.66667,4.53316 5.30903,1.68847 6.48623,1.50563 7.95309,-1.23521 z m 739.97001,-1.57052 c 6.9243,-1.47216 13.16,-3.02911 13.857,-3.45988 0.697,-0.43079 5.2316,-1.53192 10.0769,-2.447 4.8453,-0.91507 13.6097,-2.97287 19.4764,-4.57291 5.8666,-1.60003 13.1808,-3.43817 16.2536,-4.08476 8.1996,-1.72535 11.0797,-4.73611 11.0797,-11.58224 0,-3.5898 -0.6177,-5.76223 -1.6667,-5.86165 -2.7406,-0.25978 -5.5087,0.19822 -8.3333,1.37882 -1.4667,0.61303 -13.4667,4.55907 -26.6667,8.769 -13.2,4.20992 -25.2,8.14479 -26.6666,8.74415 -1.4667,0.59935 -5.0667,1.85453 -8,2.78929 -2.9334,0.93476 -5.9334,2.12074 -6.6667,2.6355 -0.7333,0.51474 -3.59,1.35762 -6.3481,1.87305 -5.896,1.10181 -6.8676,2.26601 -5.717,6.85031 0.6911,2.75345 1.4097,3.23121 3.7922,2.5211 1.6168,-0.48186 8.6049,-2.08062 15.5293,-3.55278 z M -4.22278,284.27083 c 1.11848,-0.91666 4.00939,-7.06666 6.42425,-13.66666 2.41487,-6.6 5.43615,-14.4 6.71398,-17.33333 1.27782,-2.93334 2.77797,-6.83334 3.33367,-8.66667 0.5557,-1.83333 2.69291,-6.63333 4.74936,-10.66667 7.41481,-14.54272 18.58815,-38.4446 18.58815,-39.76353 0,-0.74117 0.46362,-1.54757 1.03026,-1.79203 1.50733,-0.65025 14.96974,-19.51736 14.96974,-20.97957 0,-0.68345 0.48493,-1.44264 1.07762,-1.68709 0.59269,-0.24444 2.91994,-3.14444 5.17168,-6.44444 2.25172,-3.3 7.0168,-9.07448 10.58904,-12.83218 3.57225,-3.7577 9.795,-10.60594 13.82833,-15.2183 11.44734,-13.09075 28.01098,-29.61831 35.33334,-35.256394 3.66666,-2.82325 7.28049,-5.78418 8.03072,-6.57982 0.75022,-0.79566 2.32782,-2.04664 3.50578,-2.77998 5.02828,-3.13033 21.16576,-14.26322 29.79683,-20.55617 5.13333,-3.74274 11.28333,-7.80985 13.66667,-9.03802 2.38333,-1.22817 4.33333,-2.72191 4.33333,-3.31942 0,-0.59752 0.80668,-1.08639 1.79262,-1.08639 0.98593,0 3.47668,-1.44707 5.53498,-3.21572 3.84847,-3.30689 8.60195,-5.80304 29.33907,-15.40652 19.13017,-8.8593 26.4788,-12.31522 29.33333,-13.79491 1.46667,-0.76027 8.36667,-3.11599 15.33334,-5.23493 18.34171,-5.57869 21.12928,-6.35782 30,-8.38502 17.22319,-3.93598 31.71139,-8.36062 34.11489,-10.41856 2.12102,-1.81608 2.2772,-2.68814 0.98814,-5.51734 -2.66212,-5.84272 -6.53123,-5.11462 -59.7697,11.24758 -9.9,3.04265 -19.04185,6.10059 -20.31524,6.79542 -1.27339,0.69484 -3.48797,1.26334 -4.92131,1.26334 -1.43334,0 -2.97689,0.6 -3.43012,1.33333 -0.45322,0.73333 -1.83864,1.33518 -3.07869,1.33744 -1.24005,0.002 -6.37183,2.0779 -11.40395,4.61254 -5.03212,2.53464 -11.05049,5.23588 -13.37417,6.00276 -2.32367,0.76688 -7.30919,3.42561 -11.07893,5.90827 -3.76974,2.48267 -10.05136,5.99262 -13.95916,7.79989 -3.9078,1.80726 -11.23455,6.0729 -16.28166,9.47918 -5.04711,3.40629 -9.41157,6.19325 -9.6988,6.19325 -0.60397,0 -13.67204,8.67127 -16.06836,10.66211 -0.88572,0.73584 -2.18572,1.33789 -2.88889,1.33789 -0.70318,0 -1.4785,0.46085 -1.72295,1.0241 -0.24444,0.56325 -3.74444,3.10068 -7.77777,5.63873 -4.03334,2.53804 -7.9877,5.2272 -8.78747,5.97589 -0.79979,0.74871 -6.11805,5.56128 -11.81837,10.69462 -14.63754,13.181574 -33.41718,31.840034 -42.27777,42.004954 -4.15264,4.76394 -9.42816,10.76171 -11.72336,13.32838 -2.29521,2.56666 -6.08501,7.66666 -8.42179,11.33333 -2.33678,3.66667 -4.97861,7.42687 -5.87073,8.356 -0.89211,0.92912 -2.96517,4.07912 -4.60679,7 -1.64162,2.92087 -3.47428,5.31067 -4.07258,5.31067 -0.5983,0 -1.08781,0.6052 -1.08781,1.34488 0,0.73968 -1.71709,3.71524 -3.81575,6.61236 -2.09866,2.89712 -4.6146,7.24192 -5.59097,9.65512 -0.97637,2.4132 -2.10928,4.68764 -2.51758,5.0543 -1.5608,1.40164 -18.74237,35.33688 -18.74237,37.01796 0,0.68146 -0.92064,3.08447 -2.04586,5.34003 -3.88572,7.78911 -11.64927,30.32116 -11.80146,34.25125 -0.11418,2.94841 0.68784,4.37235 3.18065,5.647 4.19833,2.14675 5.64862,2.1604 8.19059,0.0771 z m 803.09005,0.33334 c 0.9511,0 2.4421,-1.72116 3.3135,-3.82479 1.3451,-3.24739 1.1482,-4.80736 -1.3045,-10.33333 -1.5888,-3.57971 -3.3645,-7.70855 -3.9459,-9.17521 -0.5815,-1.46667 -2.6217,-6.45622 -4.5338,-11.08788 -1.9121,-4.63168 -3.4766,-9.2064 -3.4766,-10.16607 0,-1.91687 -10.0844,-21.88689 -17.779,-35.20748 -2.6882,-4.65377 -4.8876,-8.87968 -4.8876,-9.39089 0,-0.97024 -13.5524,-22.43736 -15.7103,-24.88522 -0.6808,-0.77232 -2.9745,-4.07232 -5.0971,-7.33333 -2.1226,-3.26103 -4.9093,-7.09227 -6.1926,-8.51388 -1.2834,-1.42161 -2.3334,-2.97957 -2.3334,-3.46213 0,-0.48256 -1.95,-2.92214 -4.3333,-5.42126 -2.3833,-2.49913 -8.2291,-9.04117 -12.9905,-14.53786 -11.2092,-12.9401 -23.8433,-25.17516 -50.6153,-49.016674 -4.3091,-3.83738 -33.3969,-22.97733 -34.9197,-22.97733 -0.6277,0 -1.1412,-0.6 -1.1412,-1.33333 0,-0.73334 -0.5168,-1.33334 -1.1486,-1.33334 -0.6317,0 -5.7868,-3.05813 -11.4559,-6.79585 -5.669,-3.73772 -12.9516,-7.96559 -16.1837,-9.39526 -3.232,-1.42967 -9.4477,-4.97154 -13.8126,-7.87081 -4.3649,-2.89928 -8.7548,-5.27141 -9.7553,-5.27141 -1.0004,0 -6.5402,-2.4 -12.3106,-5.33333 -5.7703,-2.93334 -11.2891,-5.33334 -12.2638,-5.33334 -0.9748,0 -2.8142,-0.54487 -4.0876,-1.21082 -1.2734,-0.66596 -10.1152,-3.71848 -19.6486,-6.78338 -9.5333,-3.06491 -18.5333,-6.05586 -20,-6.64657 -7.0428,-2.83654 -30.5747,-8.87555 -41.1181,-10.55219 -5.977,-0.95049 -6.538,-0.79812 -7.6292,2.07194 -1.4157,3.72338 -0.5068,6.57007 2.5171,7.88371 3.2575,1.41515 23.4961,6.92351 33.7483,9.18533 4.8682,1.07403 12.3682,3.10724 16.6666,4.51826 4.2985,1.41101 11.4153,3.61466 15.8153,4.89699 4.4,1.28233 9.5,3.07761 11.3334,3.98953 3.3581,1.67037 11.7017,5.57244 31.3333,14.65387 16.9947,7.86157 23.3728,11.17026 27.1423,14.08032 1.9384,1.4964 10.1244,7.06645 18.191,12.37789 8.0667,5.31145 19.9395,13.37972 26.3841,17.92948 6.4445,4.54978 12.2945,8.27231 13,8.27231 0.7054,0 1.2826,0.47671 1.2826,1.05935 0,0.58265 3.15,3.42814 7,6.32331 8.1518,6.130074 18.7113,16.557664 33.6667,33.246044 12.5746,14.03176 14.348,15.99931 21.1891,23.50946 2.854,3.13312 7.7878,9.63377 10.964,14.44588 3.1762,4.8121 8.1521,12.04929 11.0575,16.08262 5.2311,7.26172 9.5073,15.2262 17.1811,32 2.1807,4.76667 6.0465,13.16667 8.5906,18.66667 2.5441,5.5 6.295,14.5 8.3353,20 2.0403,5.5 4.8285,12.54347 6.196,15.65213 1.3675,3.10868 2.4864,6.25868 2.4864,7 0,2.44368 5.4997,6.90265 7.5455,6.11763 1.1032,-0.42338 2.7841,-0.76976 3.7351,-0.76976 z M 352.12747,60.573196 c -0.069,-2.54963 -1.0872,-12.43569 -2.2621,-21.96903 -7.3737,-59.827553 -7.6507,-61.108439 -13.35935,-61.763007 -5.98715,-0.686504 -7.43798,1.443228 -5.98159,8.780668 0.68947,3.473623 2.06156,10.515679 3.04908,15.649009 1.55849,8.10132 3.19129,15.78145 10.06306,47.33333 0.7188,3.3 1.6502,7.8 2.0699,10 1.2786,6.70213 1.7825,7.54816 4.2095,7.06757 1.7223,-0.34105 2.3042,-1.68274 2.2115,-5.09854 z m 89.2727,-4.30236 c 1.1447,-5.31667 2.6513,-12.66667 3.3481,-16.33333 0.6968,-3.66667 3.4461,-16.86667 6.1097,-29.33334 6.8762,-32.184285 6.7123,-30.873523 4.1784,-33.407448 -1.8791,-1.87912 -2.8055,-1.963961 -6.1804,-0.566039 -2.1862,0.905547 -4.2362,2.916496 -4.5626,4.47561 -0.9679,4.623842 -4.7979,33.590027 -6.8093,51.497877 -1.0295,9.16667 -2.2525,19.48879 -2.7177,22.93806 -0.9607,7.12274 -0.1282,10.39528 2.6446,10.39528 1.2883,0 2.584,-3.13969 3.9892,-9.66667 z"
       id="path188" />
  </g>
</svg>
